<?xml version="1.0" encoding="utf-8"?>
<!-- Generator: Adobe Illustrator 19.2.1, SVG Export Plug-In . SVG Version: 6.00 Build 0)  -->
<svg version="1.1" xmlns="http://www.w3.org/2000/svg" xmlns:xlink="http://www.w3.org/1999/xlink" x="0px" y="0px"
	 viewBox="0 0 550 550" style="enable-background:new 0 0 550 550;" xml:space="preserve">
<style type="text/css">
	.st0{display:none;}
	.st1{display:inline;fill:#FFFFFF;stroke:#000000;stroke-miterlimit:10;}
	.st2{fill:#F48631;stroke:#000000;stroke-miterlimit:10;}
	.st3{fill:#40A44D;stroke:#000000;stroke-miterlimit:10;}
	.st4{fill:#812E8E;stroke:#000000;stroke-miterlimit:10;}
	.st5{fill:#3983C2;stroke:#000000;stroke-miterlimit:10;}
	.st6{fill:none;}
	.st7{font-family:'AvenirNext-Regular';}
	.st8{font-size:30px;}
	.st9{font-size:25px;}
</style>
<g id="Calque_1" class="st0">
	<rect class="st1" width="550" height="550"/>
</g>
<g id="Calque_2">
	<rect class="st2" width="275" height="275"/>
	<rect x="275" class="st3" width="275" height="275"/>
	<rect y="275" class="st4" width="275" height="275"/>
	<rect x="275" y="275" class="st5" width="275" height="275"/>
</g>
<g id="Calque_3">
	<rect y="36.6" class="st6" width="275" height="33.9"/>
	<text transform="matrix(1 0 0 1 71.6655 59.2605)" class="st7 st8">Simplicity</text>
	<rect x="275" y="36.6" class="st6" width="275" height="33.9"/>
	<text transform="matrix(1 0 0 1 343.4556 59.2605)" class="st7 st8">Education</text>
	<rect x="0" y="311.6" class="st6" width="275" height="33.9"/>
	<text transform="matrix(1 0 0 1 50.1865 334.2605)" class="st7 st8">Aggregation</text>
	<rect x="275" y="311.6" class="st6" width="275" height="33.9"/>
	<text transform="matrix(1 0 0 1 328.4409 334.2605)" class="st7 st8">Accessibility</text>
	<rect x="0" y="70.4" class="st6" width="275" height="204.6"/>
	<text transform="matrix(1 0 0 1 15.7145 145.5609)"><tspan x="0" y="0" class="st7 st9">In the presentation of</tspan><tspan x="52.6" y="30" class="st7 st9">information.</tspan></text>
	<rect x="275" y="70.4" class="st6" width="275" height="204.6"/>
	<text transform="matrix(1 0 0 1 312.9641 145.5609)"><tspan x="0" y="0" class="st7 st9">To understand all</tspan><tspan x="20.9" y="30" class="st7 st9"> the numbers.</tspan></text>
	<rect x="0" y="346.7" class="st6" width="275" height="204.6"/>
	<text transform="matrix(1 0 0 1 78.4636 421.8406)"><tspan x="0" y="0" class="st7 st9">Of all your </tspan><tspan x="-60.7" y="30" class="st7 st9">investment accounts.</tspan></text>
	<rect x="275" y="346.7" class="st6" width="275" height="204.6"/>
	<text transform="matrix(1 0 0 1 312.3762 421.8406)"><tspan x="0" y="0" class="st7 st9">With one account</tspan><tspan x="8.8" y="30" class="st7 st9">for live updates.</tspan></text>
</g>
</svg>
